<?xml version="1.0" standalone="no"?>
<!DOCTYPE svg PUBLIC "-//W3C//DTD SVG 20010904//EN"
 "http://www.w3.org/TR/2001/REC-SVG-20010904/DTD/svg10.dtd">
<svg version="1.0" xmlns="http://www.w3.org/2000/svg"
 width="180.000000pt" height="180.000000pt" viewBox="0 0 180.000000 180.000000"
 preserveAspectRatio="xMidYMid meet">
<metadata>
Created by potrace 1.10, written by Peter Selinger 2001-2011
</metadata>
<g transform="translate(0.000000,180.000000) scale(0.050000,-0.050000)"
fill="#202222" stroke="none">
<path d="M2508 2846 c-39 -42 -94 -110 -122 -151 -60 -88 -83 -92 -146 -25
-26 28 -62 50 -80 50 -50 0 -309 -189 -371 -270 -71 -92 -76 -90 -151 50 -35
67 -99 152 -142 191 l-78 71 -102 -56 c-101 -55 -275 -206 -308 -269 -39 -72
-95 -53 -111 39 -15 87 -91 258 -123 278 -45 27 -324 -339 -310 -409 12 -62
65 -46 121 35 76 111 107 103 139 -35 36 -159 35 -763 -2 -890 -34 -119 4
-186 240 -420 178 -176 174 -174 253 -100 32 30 104 98 159 150 123 118 119
118 231 -12 178 -206 285 -256 420 -195 242 109 626 200 906 216 l222 12 45
98 c63 138 53 162 -78 183 -123 20 -405 -19 -647 -90 -162 -47 -181 -38 -99
48 212 223 294 688 197 1122 -19 86 -29 162 -22 169 25 25 204 -89 318 -204
91 -91 121 -111 135 -90 100 154 -37 349 -397 565 -16 10 -52 -13 -97 -61z
m-1120 -412 c234 -306 183 -959 -98 -1262 -61 -66 -81 -57 -226 96 l-105 111
15 106 c20 132 21 603 2 690 -17 73 20 116 215 255 122 86 134 86 197 4z m754
-54 c103 -128 124 -207 74 -271 l-43 -55 53 -43 c160 -127 -79 -917 -275 -910
-34 1 -160 121 -239 225 l-72 96 41 79 c78 154 105 312 93 545 l-11 216 133
99 c153 113 169 115 246 19z"/>
</g>
</svg>
