<svg width="400" height="150" xmlns="http://www.w3.org/2000/svg">
 <g>
  <title>background</title>
 </g>

 <g>
  <title>Layer 1</title>
  <g id="svg_1">
   <path fill="#555" d="m110.748694,22.247276l0,0l0,0l0,0l0,0c-2.473,-1.861 -5.034,-3.52 -7.664,-4.983c-1.904,-1.059 -4.295,-0.564 -5.604,1.177l-16.492,21.912l-1.176,1.563c-1.786,2.373 -4.638,3.665 -7.605,3.529c-1.082,-0.049 -2.164,-0.039 -3.242,0.029c-8.289,0.525 -16.308,4.525 -21.694,11.681c-4.33,5.753 -6.229,12.576 -5.879,19.245c0.063,1.201 0.757,2.298 1.851,2.796c2.27,1.032 4.017,3.137 4.454,5.83c0.618,3.809 -1.722,7.551 -5.418,8.659c-4.357,1.306 -8.832,-1.363 -9.814,-5.724c-0.532,-2.362 0.079,-4.711 1.463,-6.48c0.768,-0.981 1.154,-2.203 1.044,-3.444c-0.758,-8.552 1.52,-17.402 7.09,-24.802c7.026,-9.334 17.717,-14.274 28.562,-14.337c2.09,-0.012 4.052,-1.011 5.309,-2.681l15.188,-20.178c1.189,-1.579 0.421,-3.848 -1.476,-4.405c-25.43,-7.46 -53.905,0.934 -70.96,23.146c-22.099,28.781 -16.729,70.279 11.987,92.462c2.687,2.076 5.482,3.909 8.36,5.508c1.893,1.052 4.274,0.537 5.577,-1.193l16.492,-21.911l1.176,-1.563c1.786,-2.373 4.638,-3.665 7.605,-3.529c1.082,0.049 2.164,0.039 3.242,-0.029c8.289,-0.525 16.308,-4.525 21.694,-11.681c4.33,-5.753 6.229,-12.576 5.879,-19.245c-0.063,-1.201 -0.757,-2.298 -1.851,-2.796c-2.27,-1.032 -4.017,-3.137 -4.454,-5.83c-0.618,-3.809 1.722,-7.551 5.418,-8.658c4.357,-1.306 8.832,1.363 9.814,5.724c0.532,2.362 -0.079,4.711 -1.463,6.48c-0.768,0.981 -1.154,2.203 -1.044,3.444c0.758,8.552 -1.52,17.402 -7.09,24.802c-7.026,9.334 -17.717,14.274 -28.562,14.337c-2.09,0.012 -4.052,1.011 -5.309,2.681l-15.187,20.177c-1.18,1.568 -0.439,3.842 1.444,4.396c25.633,7.534 54.368,-1.045 71.384,-23.652c21.926,-29.135 16.085,-70.529 -13.049,-92.457z" id="svg_2"/>
   <g id="svg_3">
    <path fill="#555" d="m219.722694,40.281276l-0.001,-1.567c-0.001,-1.133 -0.92,-2.052 -2.053,-2.052l-51.424,0c-1.134,0 -2.053,0.919 -2.053,2.053l0,3.137c0,1.134 0.919,2.053 2.053,2.053l43.629,0c1.255,0 2.221,1.107 2.034,2.348c-1.224,8.113 -5.061,23.285 -17.051,37.854c-0.847,1.029 -2.419,1.011 -3.241,-0.039c-10.032,-12.828 -13.119,-25.98 -13.962,-30.826c-0.184,-1.061 -1.166,-1.792 -2.237,-1.678l-1.643,0.174l-1.449,0.151c-1.188,0.124 -2.026,1.228 -1.808,2.403c1.028,5.558 4.773,20.841 16.549,35.388c0.683,0.843 0.625,2.076 -0.175,2.81c-14.336,13.149 -27.229,16.031 -31.841,16.657c-1.027,0.14 -1.794,1.009 -1.789,2.046l0.015,3.169c0.006,1.22 1.065,2.174 2.276,2.032c5.484,-0.645 20.116,-3.743 36.284,-18.613c0.799,-0.734 2.014,-0.734 2.81,0.003c7.813,7.235 17.799,14.211 31.266,18.495c1.091,0.347 2.259,-0.287 2.582,-1.385l0.887,-3.007c0.318,-1.078 -0.297,-2.198 -1.367,-2.539c-12.252,-3.908 -21.285,-10.2 -28.378,-16.651c-0.818,-0.744 -0.859,-2.006 -0.141,-2.846c19.984,-23.396 20.23,-48.432 20.228,-49.57z" id="svg_4"/>
    <path fill="#555" d="m255.419694,33.379276l-3.137,0c-1.134,0 -2.053,0.919 -2.053,2.053l0,10.999c0,1.134 -0.919,2.053 -2.053,2.053l-7.379,0c-1.134,0 -2.053,0.919 -2.053,2.053l0,3.137c0,1.134 0.919,2.053 2.053,2.053l7.379,0c1.134,0 2.053,0.919 2.053,2.053l0,15.933c0,1.134 -0.919,2.053 -2.053,2.053l-7.379,0c-1.134,0 -2.053,0.919 -2.053,2.053l0,3.137c0,1.134 0.919,2.053 2.053,2.053l7.379,0c1.134,0 2.053,0.919 2.053,2.053l0,15.065c0,3.27 -1.307,8.606 -9.648,9.31c-1.078,0.091 -1.921,0.965 -1.921,2.047l0,3.125c0,1.196 1.017,2.157 2.209,2.055c8.099,-0.693 16.603,-5.292 16.603,-16.537l0,-15.065c0,-1.134 0.919,-2.053 2.053,-2.053l6.557,0c1.134,0 2.053,-0.919 2.053,-2.053l0,-3.137c0,-1.134 -0.919,-2.053 -2.053,-2.053l-6.557,0c-1.134,0 -2.053,-0.919 -2.053,-2.053l0,-15.933c0,-1.134 0.919,-2.053 2.053,-2.053l6.557,0c1.134,0 2.053,-0.919 2.053,-2.053l0,-3.137c0,-1.134 -0.919,-2.053 -2.053,-2.053l-6.557,0c-1.134,0 -2.053,-0.919 -2.053,-2.053l0,-10.999c0,-1.134 -0.919,-2.053 -2.053,-2.053z" id="svg_5"/>
    <path fill="#555" d="m271.757694,114.116276c0,1.134 0.919,2.053 2.053,2.053l23.138,0c10.239,0 18.569,-7.94 18.569,-17.7l0,-48.63c0,-1.134 -0.919,-2.053 -2.053,-2.053l-39.654,0c-1.134,0 -2.053,0.919 -2.053,2.053l0,64.277zm25.191,-5.19l-15.895,0c-1.134,0 -2.053,-0.919 -2.053,-2.053l0,-21.81c0,-1.134 0.919,-2.053 2.053,-2.053l25.167,0c1.134,0 2.053,0.919 2.053,2.053l0,13.406c0.001,5.766 -5.08,10.457 -11.325,10.457zm11.326,-51.843l0,16.631c0,1.134 -0.919,2.053 -2.053,2.053l-25.167,0c-1.134,0 -2.053,-0.919 -2.053,-2.053l0,-16.631c0,-1.134 0.919,-2.053 2.053,-2.053l25.167,0c1.134,0 2.053,0.919 2.053,2.053z" id="svg_6"/>
    <path fill="#555" d="m303.280694,33.325276l-20.44,0c-1.134,0 -2.053,0.919 -2.053,2.053l0,3.137c0,1.134 0.919,2.053 2.053,2.053l20.44,0c1.134,0 2.053,-0.919 2.053,-2.053l0,-3.137c0,-1.134 -0.919,-2.053 -2.053,-2.053z" id="svg_7"/>
    <path fill="#555" d="m381.412694,36.511276l-42.573,0c-1.134,0 -2.053,0.919 -2.053,2.053l0,3.137c0,1.134 0.919,2.053 2.053,2.053l42.573,0c1.134,0 2.053,-0.919 2.053,-2.053l0,-3.137c0,-1.134 -0.919,-2.053 -2.053,-2.053z" id="svg_8"/>
    <path fill="#555" d="m363.219694,72.824276l29.657,0c1.134,0 2.053,-0.919 2.053,-2.053l0,-3.137c0,-1.134 -0.919,-2.053 -2.053,-2.053l-65.51,0c-1.134,0 -2.053,0.919 -2.053,2.053l0,3.137c0,1.134 0.919,2.053 2.053,2.053l20.274,0c1.638,0 2.617,1.824 1.711,3.189l-13.492,24.343c-0.363,0.545 -0.632,1.08 -0.821,1.633c-1.129,3.299 -0.601,6.838 1.451,9.71c2.15,3.01 5.706,4.806 9.509,4.806l36.976,0c1.662,0 3.181,-0.829 4.061,-2.218c0.863,-1.359 0.969,-3.039 0.283,-4.495l-8.586,-16.643c-0.52,-1.008 -1.759,-1.403 -2.766,-0.883l-2.788,1.439c-1.008,0.52 -1.403,1.758 -0.883,2.766l5.055,9.796c0.705,1.367 -0.287,2.995 -1.825,2.995l-29.528,0c-1.492,0 -2.81,-0.647 -3.616,-1.775c-0.367,-0.512 -0.899,-1.53 -0.589,-2.798c0.052,-0.212 0.157,-0.413 0.278,-0.596l16.397,-28.72c1.058,-1.592 2.841,-2.549 4.752,-2.549z" id="svg_9"/>
   </g>
  </g>
 </g>
 <g>
  <title>background</title>
 </g>
 <g>
  <title>background</title>
  <rect fill="none" id="canvas_background" height="152" width="402" y="-1" x="-1"/>
 </g>
</svg>